<svg xmlns="http://www.w3.org/2000/svg" xmlns:xlink="http://www.w3.org/1999/xlink" width="428" height="153"><defs><path id="a" d="M.4966416.0980071h25.3588441v53.253474H.4966416z"/><path id="c" d="M0 152.455516h509.871283V.0980071H0z"/><path id="e" d="M.1187656.0980071h25.3588442v53.253474H.1187656z"/><path id="g" d="M0 152.455516h509.871283V.0980071H0z"/></defs><g fill="none" fill-rule="evenodd" opacity=".25"><g transform="translate(-82)"><path fill="#F2EAC7" d="M280.446783 92.5526947h46.69123V46.6891751l-23.345345-22.7915552-23.345885 22.7915552v45.8635196zm47.772884 1.0889679h-48.854539v-47.413121l24.42754-23.8473096 24.426999 23.8473096v47.413121z"/><g transform="translate(416.436903)"><mask id="b" fill="#fff"><use xlink:href="#a"/></mask><path fill="#F2EAC7" d="M1.5782959 52.2625132h23.1955355V2.1580078L1.5782959 18.0743637v34.1881495zm24.2771898 1.0889679H.4966416v-35.852637L25.8554857.0976804v53.2538007z" mask="url(#b)"/></g><mask id="d" fill="#fff"><use xlink:href="#c"/></mask><path fill="#F2EAC7" d="M344.516628 92.8791673h1.081654V76.1820214h-1.081654z" mask="url(#d)"/><path fill="#F2EAC7" d="M345.057671 60.0288149c-4.274157 0-7.751675 3.5010321-7.751675 7.804089 0 4.303057 3.477518 7.8046335 7.751675 7.8046335s7.751676-3.5015765 7.751676-7.8046335c0-4.3030569-3.477519-7.804089-7.751676-7.804089m0 16.6976904c-4.870689 0-8.83333-3.9894341-8.83333-8.8936014 0-4.9036228 3.962641-8.8930569 8.83333-8.8930569 4.87069 0 8.83333 3.9894341 8.83333 8.8930569 0 4.9041673-3.96264 8.8936014-8.83333 8.8936014M267.647297 86.9265416c-2.087593 0-3.78579 1.7102242-3.78579 3.8113879s1.698197 3.8113879 3.78579 3.8113879 3.78579-1.7102242 3.78579-3.8113879-1.698197-3.8113879-3.78579-3.8113879m0 8.7117438c-2.683584 0-4.867444-2.1980818-4.867444-4.9003559 0-2.702274 2.18386-4.9003558 4.867444-4.9003558 2.683584 0 4.867444 2.1980818 4.867444 4.9003558 0 2.7022741-2.18386 4.9003559-4.867444 4.9003559M267.647297 70.2288512c-2.087593 0-3.78579 1.7102242-3.78579 3.8113879s1.698197 3.8113879 3.78579 3.8113879 3.78579-1.7102242 3.78579-3.8113879-1.698197-3.8113879-3.78579-3.8113879m0 8.7117438c-2.683584 0-4.867444-2.1980818-4.867444-4.9003559 0-2.702274 2.18386-4.9003558 4.867444-4.9003558 2.683584 0 4.867444 2.1980818 4.867444 4.9003558 0 2.7022741-2.18386 4.9003559-4.867444 4.9003559M316.577065 13.2090726c-2.087593 0-3.78579 1.7102242-3.78579 3.8113879s1.698197 3.8113879 3.78579 3.8113879c2.087592 0 3.78579-1.7102242 3.78579-3.8113879s-1.698198-3.8113879-3.78579-3.8113879m0 8.7117438c-2.683585 0-4.867445-2.1980819-4.867445-4.9003559s2.18386-4.9003559 4.867445-4.9003559c2.683584 0 4.867444 2.1980819 4.867444 4.9003559s-2.18386 4.9003559-4.867444 4.9003559M458.319207 69.4961391c-4.176808 0-7.574825 3.4209929-7.574825 7.6260428 0 4.2050498 3.398017 7.6265871 7.574825 7.6265871 4.176808 0 7.574825-3.4215373 7.574825-7.6265871 0-4.2050499-3.398017-7.6260428-7.574825-7.6260428m0 16.3415979c-4.773341 0-8.65648-3.9099395-8.65648-8.7155551 0-4.8050712 3.883139-8.7150107 8.65648-8.7150107 4.77334 0 8.656479 3.9099395 8.656479 8.7150107 0 4.8056156-3.883139 8.7155551-8.656479 8.7155551M344.675252 84.9155989l-4.146521-4.1745587.764729-.7699003 4.146522 4.1745587zM345.440036 89.0901032l-.76473-.7699004 4.145981-4.1745587.765271.7699004z" mask="url(#d)"/><path fill="#F2EAC7" d="M266.980403 109.994477h1.081654V95.0761601h-1.081654z" mask="url(#d)"/><path fill="#F2EAC7" d="M267.138703 101.957839l-4.146522-4.1740144.765271-.7699004 4.145981 4.1740138zM267.903433 105.75115l-.76473-.769901 4.145981-4.174014.76527.769901zM289.132683 83.8080641h7.60457v-7.6559894h-7.60457v7.6559894zm-1.081654 1.0889679h9.767879v-9.8339252h-9.767879v9.8339252zM289.132683 61.9464875h7.60457v-7.6559893h-7.60457v7.6559893zm-1.081654 1.088968h9.767879v-9.8339253h-9.767879v9.8339253zM310.847434 61.9464875h7.60457v-7.6559893h-7.60457v7.6559893zm-1.081114 1.088968h9.767879v-9.8339253h-9.767879v9.8339253zM337.94017 138.141032h3.998876v-4.026459h-3.998876v4.026459zM336.858515 139.23h6.162185v-6.204395h-6.162185V139.23zM337.94017 147.925409h3.998876v-4.026459h-3.998876v4.026459zm-1.081655 1.088968h6.162185v-6.204395h-6.162185v6.204395zM491.261097 75.8917025h-1.081655v-5.560815h-4.98264v5.560815h-1.081655v-6.6497829h7.14595zM491.261097 87.7682594h-1.081655v-5.5608149h-4.98264v5.5608149h-1.081655v-6.6497829h7.14595zM491.261097 104.531342h-1.081655V93.0971786h-4.98264v11.4341634h-1.081655V92.0082107h7.14595zM502.749185 75.8917025h-1.081655v-5.560815h-4.98264v5.560815h-1.081655v-6.6497829h7.14595zM502.749185 87.7682594h-1.081655v-5.5608149h-4.98264v5.5608149h-1.081655v-6.6497829h7.14595zM502.749185 98.3846626h-1.081655v-5.5608149h-4.98264v5.5608149h-1.081655v-6.6497829h7.14595zM426.983033 26.4907794h5.194104v-5.2292242h-5.194104v5.2292242zm-1.081654 1.0889679h7.357412v-7.4071601h-7.357412v7.4071601zM391.361453 30.1028861h3.824189v-3.8500462h-3.824189v3.8500462zm-1.081654 1.088968h5.987497v-6.0279822h-5.987497v6.0279822zM459.675493 141.737349h3.824189v-3.850047h-3.824189v3.850047zm-1.081654 1.088968h5.987497v-6.027982h-5.987497v6.027982zM475.270244 141.737349h3.824189v-3.850047h-3.824189v3.850047zm-1.081114 1.088968h5.987498v-6.027982h-5.987498v6.027982zM490.972619 141.737349h3.824189v-3.850047h-3.824189v3.850047zm-1.081654 1.088968h5.987497v-6.027982h-5.987497v6.027982zM426.983033 40.2912705h5.194104v-5.2292242h-5.194104v5.2292242zm-1.081654 1.0889679h7.357412v-7.4071601h-7.357412v7.4071601zM449.889226 40.2912705h5.194104v-5.2292242h-5.194104v5.2292242zm-1.081654 1.0889679h7.357412v-7.4071601h-7.357412v7.4071601zM310.847434 92.5524769h7.60457V80.5242811h-7.60457v12.0281958zm-1.081114 1.0889679h9.767879V79.4353132h-9.767879v14.2061316zM371.557985 151.356747h18.388123V83.8407331h-18.388123v67.5160139zm-1.081654 1.088968h20.551431V82.7517651h-20.551431v69.6939499z" mask="url(#d)"/><path fill="#F2EAC7" d="M376.425429 102.353189h8.653235v-8.7117442h-8.653235v8.7117442zm-1.081654 1.088968h10.816543V92.5524769h-10.816543v10.8896801zM376.425429 121.954612h8.653235v-8.711744h-8.653235v8.711744zm-1.081654 1.088968h10.816543V112.1539h-10.816543v10.88968zM376.425429 141.556036h8.653235v-8.711744h-8.653235v8.711744zm-1.081654 1.088968h10.816543v-10.88968h-10.816543v10.88968zM391.027762 151.356747h28.123012v-38.113879h-28.123012v38.113879zm-1.081654 1.088968h30.28632V112.1539h-30.28632v40.291815z" mask="url(#d)"/><path fill="#F2EAC7" d="M400.762651 141.556036h8.653234v-8.711744h-8.653234v8.711744zm-1.081654 1.088968h10.816543v-10.88968h-10.816543v10.88968zM430.172453 137.714592h13.110732l-6.555366-20.190011-6.555366 20.190011zm14.602333 1.088968h-16.093934l8.046967-24.784366 8.046967 24.784366z" mask="url(#d)"/><path fill="#F2EAC7" d="M436.186829 147.896552h1.081655v-9.637367h-1.081655zM440.423885 73.2782883h-70.717476l-15.838664-16.4962314.777169-.7568327 15.520117 16.1640961h70.258854zM454.07631 115.563459h46.740445v-1.088968H454.07631zM509.871013 104.531342h-1.081655V62.1133174h-29.426405v42.4180246h-1.081654V61.0243495h31.589714z" mask="url(#d)"/><path fill="#F2EAC7" d="M382.807298 62.3886085c-1.341792 0-2.433722 1.0993132-2.433722 2.450178 0 1.3508647 1.09193 2.4501779 2.433722 2.4501779 1.341792 0 2.433722-1.0993132 2.433722-2.4501779 0-1.3508648-1.09193-2.450178-2.433722-2.450178m0 5.9893239c-1.938325 0-3.515376-1.5877153-3.515376-3.5391459s1.577051-3.5391459 3.515376-3.5391459c1.938324 0 3.515376 1.5877153 3.515376 3.5391459s-1.577052 3.5391459-3.515376 3.5391459M400.22204 62.3886085c-1.341792 0-2.433722 1.0993132-2.433722 2.450178 0 1.3508647 1.09193 2.4501779 2.433722 2.4501779 1.341792 0 2.433722-1.0993132 2.433722-2.4501779 0-1.3508648-1.09193-2.450178-2.433722-2.450178m0 5.9893239c-1.938324 0-3.515376-1.5877153-3.515376-3.5391459s1.577052-3.5391459 3.515376-3.5391459c1.938325 0 3.515377 1.5877153 3.515377 3.5391459s-1.577052 3.5391459-3.515377 3.5391459M379.399979 56.0720498H403.7372v-1.0889679h-24.337221z" mask="url(#d)"/><path fill="#F2EAC7" d="M391.027762 65.1110285h1.081655V48.7765089h-1.081655z" mask="url(#d)"/><path fill="#F2EAC7" d="M386.701145 65.8727616h10.275716v-1.088968h-10.275716z" mask="url(#d)"/><path fill="#F2EAC7" d="M404.278244 65.8729794h-.275822v-1.088968h.275822c2.087593 0 3.78579-1.7102242 3.78579-3.8113879v-1.088968c0-2.1011637-1.698197-3.8113879-3.78579-3.8113879h-1.081654v-1.088968c0-2.2247615-.899937-5.9893238-4.272535-5.9893238h-14.277837c-3.889088 0-4.705196 3.2565587-4.705196 5.9893238v1.088968h-1.081654c-2.087593 0-3.78579 1.7102242-3.78579 3.8113879v1.088968c0 2.1011637 1.698197 3.8113879 3.78579 3.8113879h.816649v1.088968h-.816649c-2.683584 0-4.867444-2.1980819-4.867444-4.9003559v-1.088968c0-2.702274 2.18386-4.9003559 4.867444-4.9003559 0-4.4985266 2.109226-7.0782918 5.78685-7.0782918h14.277837c3.678706 0 5.354189 3.6692776 5.354189 7.0782918 2.683584 0 4.867444 2.1980819 4.867444 4.9003559v1.088968c0 2.702274-2.18386 4.9003559-4.867444 4.9003559M292.429457 123.570205h-33.197593v-1.088968h33.197593c22.219343 0 28.993743-6.91168 28.993743-29.5834484h1.081655c0 23.2195194-7.307657 30.6724164-30.075398 30.6724164" mask="url(#d)"/><path fill="#F2EAC7" d="M289.514615 110.176661h-29.958579v-1.088968h29.958579c13.143181 0 17.361633-3.813021 17.361633-15.6920282h1.081654c0 12.5465442-4.653817 16.7809962-18.443287 16.7809962M450.691922 87.3748153c.130339 1.3334413.568409 4.4794698 1.8837 6.0546619 1.34017 1.6062278 4.122185 2.12621 5.337964 2.2808434-.069225-1.2512242-.401293-4.2039608-1.989162-6.1929608-1.235249-1.547968-4.002662-2.0107794-5.232502-2.1425445zm8.310349 9.5148577l-.561378-.0326691c-.18929-.0103452-4.661389-.2918434-6.693277-2.7267758-1.92264-2.3037117-2.175747-7.1191281-2.186023-7.3227651l-.028664-.5918541.58842.0212349c.191994.0070783 4.729533.1965587 6.646225 2.598822 2.299056 2.8797758 2.248218 7.3009858 2.244973 7.4877438l-.010276.5662634z" mask="url(#d)"/><path fill="#F2EAC7" d="M465.797332 87.3769388c-1.199014.1344875-3.85123.5994769-5.039427 2.1338327-1.54298 1.9944449-1.864232 4.9439146-1.930213 6.1962278 1.186034-.1584449 3.856639-.6822384 5.142185-2.2710427 1.275811-1.5768256 1.700901-4.7239431 1.827455-6.0590178zm-8.057784 9.5132242l-.009735-.5668078c-.003245-.186758-.05246-4.6030677 2.174666-7.4817545 1.863691-2.4071637 6.274677-2.5977331 6.461803-2.6048114l.587879-.0217793-.028123.5913096c-.009194.203637-.254729 5.015242-2.117338 7.3178647-1.975101 2.4398328-6.32281 2.72242-6.506692 2.7327652l-.56246.0332135zM333.054608 102.729863c.15738 1.194053.677656 3.882715 2.25579 5.176953 1.568398 1.286616 4.692757 1.713491 6.018324 1.840356-.133584-1.206576-.59491-3.87727-2.120042-5.074046-1.98105-1.553413-4.91017-1.876836-6.154072-1.943263zm9.428239 8.180872l-.587338-.027225c-.20281-.0098-4.981559-.256996-7.268176-2.132199-2.423987-1.989-2.704136-6.365562-2.714952-6.550687l-.032991-.566808.563542-.009256c.184422.006534 4.571612-.052815 7.430424 2.18937 2.391538 1.876292 2.580827 6.317648 2.587858 6.50495l.021633.591855zM343.158449 102.730407c.157921 1.194598.678197 3.882171 2.25579 5.176409 1.566235 1.284438 4.692216 1.712403 6.018865 1.840356-.133584-1.207121-.595451-3.877815-2.120583-5.074046-1.975642-1.549601-4.908548-1.875203-6.154072-1.942719zm9.42878 8.180328l-.587879-.027225c-.202269-.0098-4.981559-.256996-7.268176-2.132199-2.423987-1.989-2.704136-6.365562-2.714952-6.550687l-.032991-.566808.563542-.009256c.184963.006534 4.571612-.052815 7.430965 2.18937 2.390997 1.876837 2.580827 6.317103 2.587858 6.505495l.021633.59131zM353.316643 102.729863c.15738 1.194053.677656 3.882715 2.25579 5.176953 1.568398 1.286616 4.692757 1.713491 6.018324 1.840356-.133584-1.206576-.59491-3.87727-2.120042-5.074046-1.98105-1.553413-4.91017-1.876836-6.154072-1.943263zm9.428239 8.180872l-.587338-.027225c-.20281-.0098-4.981559-.256996-7.268176-2.132199-2.423987-1.989-2.704136-6.365562-2.714952-6.550687l-.032991-.566808.563542-.009256c.186585.006534 4.571612-.052815 7.430424 2.18937 2.391538 1.876292 2.580827 6.317648 2.587858 6.50495l.021633.591855zM398.4226 95.3947377c.157381 1.1940534.677657 3.8827153 2.25579 5.1769533 1.565695 1.283894 4.692217 1.711858 6.018325 1.839812-.133585-1.207121-.595451-3.8772706-2.120043-5.0735019-1.98105-1.5534128-4.910169-1.8768363-6.154072-1.9432634zm9.42824 8.1803273l-.587338-.027224c-.202811-.009801-4.981559-.256997-7.268176-2.131655-2.424529-1.9889999-2.704136-6.3655622-2.714953-6.5506867l-.03299-.5668078.563542-.0092563c.184422.0027225 4.571612-.0528149 7.430424 2.1893701 2.391538 1.8762919 2.580827 6.3165587 2.587858 6.5049507l.021633.591309zM343.07051 38.6158388c-.776628.8951317-2.488886 3.1411281-2.488886 5.5330463 0 1.9917224 1.697656 4.3526049 2.488886 5.3451992.803128-.9893274 2.532153-3.3512989 2.532153-5.3451992 0-2.399541-1.743627-4.6422705-2.532153-5.5330463zm-.008112 12.5269431l-.396967-.4415766c-.128717-.1431993-3.165462-3.552758-3.165462-6.5523202 0-3.5407794 3.058378-6.5915232 3.188176-6.7200214l.375334-.3686157.378038.3653488c.132503.1284982 3.2428 3.1797865 3.2428 6.7232883 0 3.0109964-3.089205 6.4129323-3.220085 6.5566761l-.401834.4372207zM442.374865 52.2789566h21.131199V29.1852128l-21.131199-10.5820463v33.6757901zm22.212853 1.088968h-23.294507V16.8455722l23.294507 11.6655694v24.856783zM483.579404 45.8270391l.262842.3288684c.844772 1.0573879 2.099491 1.663943 3.442906 1.663943 1.498632 0 2.882608-.7573772 3.703043-2.0265694l.354242-.5482953.471601.4508327c.485663.4639004 1.120053.7198078 1.786352.7198078 1.432111 0 2.597593-1.1728185 2.597593-2.6146121 0-1.2278114-.865323-2.3031672-2.056766-2.5574412l-.616543-.1317652.222821-.5934875c.083288-.2221495.125472-.44321.125472-.6571922 0-1.0328861-.835037-1.8735694-1.860986-1.8735694-.392641 0-.772842.1279538-1.099502.3707936l-.585175.4344982-.245535-.6887722c-.539746-1.5163879-1.975101-2.5351174-3.571623-2.5351174-2.094082 0-3.798229 1.715669-3.798229 3.8244555 0 .1649786.014062.3272348.034613.4873131l.081665.6495694-.71281-.0413808c-.032991-.0027224-.065981-.0049003-.099512-.0049003-1.581379 0-2.868547 1.2953274-2.868547 2.8879431 0 1.5926156 1.287168 2.887943 2.868547 2.887943.407783 0 .805291-.0871174 1.181707-.2591744l.381824-.1736904zm3.705748 3.0817794c-1.538113 0-2.983203-.6386797-4.023214-1.7646726-.402375.136121-.819893.204726-1.246065.204726-2.177911 0-3.950202-1.7837296-3.950202-3.976911 0-2.0619609 1.566777-3.7623844 3.564592-3.9583986v-.0201459c0-2.7093523 2.189268-4.9134235 4.879883-4.9134235 1.836649 0 3.507264 1.0486761 4.335271 2.6657936.367221-.1628007.762025-.2471958 1.166564-.2471958 1.622481 0 2.94264 1.3290855 2.94264 2.9625374 0 .1595338-.014061.3196121-.041643.4802349 1.39966.5401281 2.366659 1.9149502 2.366659 3.4596512 0 2.0423595-1.650604 3.7035801-3.679247 3.7035801-.739851 0-1.45158-.2221495-2.055684-.6337794-1.04001 1.2855267-2.592725 2.0380036-4.259554 2.0380036zM358.93297 38.725879l.346671.4949359c.841527 1.2022207 2.267147 1.9203951 3.813913 1.9203951 1.387762 0 2.681421-.5760641 3.549989-1.5795481l.256352-.2967438.360191.1519111c.391559.1649786.805292.2488292 1.2293.2488292 1.627349 0 2.950753-1.2120214 2.950753-2.7011851 0-1.4897082-1.323404-2.701185-2.950753-2.701185-.034613 0-.069226.0027224-.103298.0043558l-.720382.0353915.089237-.6501139c.021092-.1480996.035154-.2978327.035154-.4508327 0-1.9770214-1.750658-3.5859716-3.902609-3.5859716-1.646278 0-3.123277.9604698-3.675461 2.3908292l-.246618.6392242-.56246-.3865836c-.339099-.2335836-.736606-.356637-1.149798-.356637-1.057858 0-1.918855.7813345-1.918855 1.7418042 0 .1960143.040562.391484.123849.5978435l.248781.6130889-.645748.1268648c-1.221188.2401174-2.107603 1.2441459-2.107603 2.3875623 0 1.3470534 1.199014 2.4430996 2.672768 2.4430996.693881 0 1.352067-.2439288 1.854496-.6882277l.452131-.3991068zm4.160584 3.5042989c-1.703065 0-3.292015-.7170854-4.354741-1.9421743-.619788.3991067-1.352068.6141779-2.11247.6141779-2.070287 0-3.754423-1.5844484-3.754423-3.5320676 0-1.4750071.987551-2.7855801 2.416957-3.3001175-.024337-.1426548-.036235-.2842206-.036235-.425242 0-1.5610355 1.346118-2.8307722 3.000509-2.8307722.419681 0 .829088.0833061 1.209289.2439288.846395-1.5349003 2.552704-2.5307615 4.425048-2.5307615 2.744157 0 4.977773 2.0908185 4.984263 4.6640498 2.044867.1813132 3.650042 1.8038754 3.650042 3.773274 0 2.0897295-1.808526 3.790153-4.032407 3.790153-.440233 0-.871813-.0669715-1.287709-.2003701-1.062185 1.0693666-2.538643 1.6759217-4.108123 1.6759217z" mask="url(#d)"/><path fill="#F2EAC7" d="M457.729597 105.072886h1.081654V85.2934164h-1.081654zM436.283421 106.336579c-13.37141 0-22.354549-9.8845623-22.354549-24.5970641h1.081654c0 14.0607545 8.548855 23.5080961 21.272895 23.5080961v1.088968z" mask="url(#d)"/><path fill="#F2EAC7" d="M436.433933 97.0079893c-8.16649 0-13.653181-6.0290712-13.653181-15.0032562h1.081654c0 8.3224377 5.051867 13.9142883 12.571527 13.9142883v1.0889679zM325.528457 29.1081139h-1.081654c0-7.769242 5.657593-12.9886655 14.078812-12.9886655h22.038706v1.088968h-22.038706c-7.773849 0-12.997158 4.7822028-12.997158 11.8996975" mask="url(#d)"/><path fill="#F2EAC7" d="M331.816384 36.1231367h-1.081654c0-7.8792278 3.860965-11.8746513 11.475811-11.8746513h10.876575v1.088968h-10.876575c-6.993977 0-10.394157 3.5282562-10.394157 10.7856833M289.82121 37.4146527h-1.081654V17.8469872h-28.947773l8.031283 6.8071388-9.182164 7.1697651-.662513-.8602847 8.124306-6.3443274-9.275186-7.8612598h32.993701z" mask="url(#d)"/><path fill="#F2EAC7" d="M258.641011 45.9732875l-.663054-.8602847 8.124846-6.3443274-8.141612-6.90079.696585-.8330605 9.165398 7.7686975z" mask="url(#d)"/><path fill="#F2EAC7" d="M279.905955 60.1766423H256.72989l9.373075-7.3189537-8.141612-6.90079.696585-.8330605 9.164857 7.7686975-7.933393 6.1951388h20.016553zM265.852129 31.8241089l-.663054-.8602847 8.124847-6.3443274-8.141612-6.90079.696585-.8330605 9.165398 7.7686975z" mask="url(#d)"/><path fill="#F2EAC7" d="M265.852129 45.9732875l-.663054-.8602847 8.124847-6.3443274-8.141612-6.90079.696585-.8330605 9.165398 7.7686975z" mask="url(#d)"/><path fill="#F2EAC7" d="M265.852129 60.0623007l-.663054-.8602847 8.124847-6.3443274-8.141612-6.90079.696585-.8330605 9.165398 7.7686975zM454.257487 150.631168h-1.081655v-19.856787l8.717052-9.306864 7.909597 9.165843-.816649.714908-7.125938-8.257645-7.602407 8.116623z" mask="url(#d)"/><path fill="#F2EAC7" d="M469.998748 150.631168h-1.081655v-19.856787l8.717052-9.306864 7.909597 9.165843-.816649.714908-7.125938-8.257645-7.602407 8.116623z" mask="url(#d)"/><path fill="#F2EAC7" d="M501.350606 150.631168h-1.081655v-19.436445l-6.993436-8.1041-7.602407 8.116623v19.060751h-1.081654v-19.493616l8.717052-9.306864 8.0421 9.319932zM304.488496 152.17478l-9.159448-16.078612.938335-.541217 8.283849 14.540989 9.511527-14.569302.903722.597299z" mask="url(#d)"/><path fill="#F2EAC7" d="M286.239258 152.196559l-9.171888-16.100391.938335-.541217 8.271411 14.51921 8.988006-14.536634.918324.57552z" mask="url(#d)"/><path fill="#F2EAC7" d="M268.060813 152.187521l-9.383891-16.086235.932926-.552107 8.478007 14.533911 8.993414-14.545345.918325.57552zM489.736829 21.6267406h-.048674c-2.329343-.0147011-4.486161-1.1025801-5.769003-2.9113559-1.074083-1.5136655-2.668442-2.3821174-4.374751-2.3821174-1.705769 0-3.300668.8684519-4.375292 2.3821174-1.332057 1.8784697-3.36719 2.9320463-5.445588 2.8313167-1.901008-.0969181-3.555398-1.1455943-4.538081-2.8775978l.938876-.5401282c.796638 1.4031353 2.128155 2.2525303 3.653828 2.329847 1.710636.0871175 3.394231-.8014804 4.511039-2.3761281 1.280138-1.803331 3.195207-2.838395 5.255218-2.838395 2.06001 0 3.975079 1.035064 5.255217 2.838395 1.081655 1.5245552 2.911273 2.4425552 4.895027 2.4550783 2.006468.0027224 3.856638-.8994875 5.024284-2.5024484 1.418049-1.9465302 3.239014-3.0191637 5.127582-3.0191637 1.888569 0 3.709534 1.0726335 5.127582 3.0191637l-.872354.644669c-1.209289-1.6601316-2.72036-2.5748647-4.255228-2.5748647-1.535408 0-3.045938.9147331-4.255228 2.5748647-1.365588 1.8741139-3.497529 2.9467474-5.854454 2.9467474M489.736829 14.7297619h-.048674c-2.329343-.014701-4.486161-1.10258-5.769003-2.9113559-1.074083-1.5136654-2.668442-2.3821174-4.374751-2.3821174-1.705769 0-3.300668.868452-4.375292 2.3821174-1.332057 1.8790143-3.36719 2.9380356-5.445588 2.8313168-1.901008-.0969182-3.555398-1.1455943-4.538081-2.8775979l.938876-.5401281c.796638 1.4031352 2.128155 2.2525302 3.653828 2.329847 1.710636.0860284 3.394231-.8014805 4.511039-2.3761281 1.280138-1.803331 3.195207-2.838395 5.255218-2.838395 2.06001 0 3.975079 1.035064 5.255217 2.838395 1.081655 1.5245551 2.911273 2.4425551 4.895027 2.4550783 2.006468.0070782 3.856638-.8994876 5.024284-2.5024484 1.418049-1.9465303 3.239014-3.0186193 5.127582-3.0186193 1.888569 0 3.709534 1.072089 5.127582 3.0186193l-.871813.644669c-1.20983-1.6601317-2.720901-2.5743203-4.255769-2.5743203-1.535408 0-3.045938.9141886-4.255228 2.5743203-1.365588 1.8741139-3.497529 2.9467473-5.854454 2.9467473" mask="url(#d)"/><path fill="#F2EAC7" d="M268.073955 151.679626h36.445801v-1.088968h-36.445801zM259.143277 136.369826h55.371506v-1.088968h-55.371506zM325.876263 143.658669l5.04754 5.873349v-16.687345c0-4.903623 3.963181-8.893057 8.83387-8.893057 1.280679 0 2.498622.275509 3.598123.771534-2.041081-2.263965-5.222767-5.218335-7.92474-5.218335-2.241728 0-9.554793.719808-9.554793 9.982025v14.171829zm6.129194 8.796684l-7.210848-8.391588V129.48684c0-8.162904 5.494263-11.070993 10.636447-11.070993 4.905843 0 10.65105 7.874872 10.893341 8.210274l-.151973.111075c1.498632 1.594249 2.418579 3.744416 2.418579 6.107477v17.967971h11.718102v1.088968h-12.799756v-19.056939c0-4.303601-3.477519-7.804089-7.751676-7.804089-4.274697 0-7.752216 3.500488-7.752216 7.804089v19.61068zM401.629543 37.0153281h-1.081654V21.989748l-7.130806-7.4305729-7.436914 7.4371068v15.0190462h-1.081655V21.5432712l8.534794-8.5347865 8.196235 8.5413203z" mask="url(#d)"/><path fill="#F2EAC7" d="M379.635996 37.3784989h-1.081655V16.0951644l8.551018-8.4002989 6.66894 5.6729786-.698208.8319716-5.918812-5.0348435-7.521283 7.3897367z" mask="url(#d)"/><path fill="#F2EAC7" d="M385.087858 22.1834754l-6.04807-5.2085338.703075-.8276156 6.04807 5.2085338zM371.37789 37.5595943h46.511134v-1.088968H371.37789z" mask="url(#d)"/></g><g transform="translate(-82)"><g transform="translate(160.084836)"><mask id="f" fill="#fff"><use xlink:href="#e"/></mask><path fill="#F2EAC7" d="M1.20042 52.2625132h23.1955355V2.1580078L1.2004199 18.0743637v34.1881495zm24.2771898 1.0889679H.1187656v-35.852637L25.4776098.0976804v53.2538007z" mask="url(#f)"/></g><mask id="h" fill="#fff"><use xlink:href="#g"/></mask><path fill="#F2EAC7" d="M87.7870626 92.8791673h1.0816543V76.1820214h-1.0816543z" mask="url(#h)"/><path fill="#F2EAC7" d="M88.3277275 60.0288149c-4.274157 0-7.7516755 3.5010321-7.7516755 7.804089 0 4.303057 3.4775185 7.8046335 7.7516755 7.8046335 4.2741569 0 7.7516755-3.5015765 7.7516755-7.8046335 0-4.3030569-3.4775186-7.804089-7.7516755-7.804089m0 16.6976904c-4.8706893 0-8.8333298-3.9894341-8.8333298-8.8936014 0-4.9036228 3.9626405-8.8930569 8.8333298-8.8930569 4.8706893 0 8.8333298 3.9894341 8.8333298 8.8930569 0 4.9041673-3.9626405 8.8936014-8.8333298 8.8936014M201.589263 69.4961391c-4.176808 0-7.574825 3.4209929-7.574825 7.6260428 0 4.2050498 3.398017 7.6265871 7.574825 7.6265871 4.176808 0 7.574825-3.4215373 7.574825-7.6265871 0-4.2050499-3.398017-7.6260428-7.574825-7.6260428m0 16.3415979c-4.77334 0-8.656479-3.9099395-8.656479-8.7155551 0-4.8050712 3.883139-8.7150107 8.656479-8.7150107 4.77334 0 8.656479 3.9099395 8.656479 8.7150107 0 4.8056156-3.883139 8.7155551-8.656479 8.7155551M87.9453086 84.9155989l-4.1465217-4.1745587.7647295-.7699003 4.1465218 4.1745587zM88.7100923 89.0901032l-.7647296-.7699004 4.1459809-4.1745587.7652704.7699004zM81.2100636 138.141032h3.998876v-4.026459h-3.998876v4.026459zM80.1284093 139.23h6.1621845v-6.204395h-6.1621845V139.23zM81.2100636 147.925409h3.998876v-4.026459h-3.998876v4.026459zm-1.0816543 1.088968h6.1621845v-6.204395h-6.1621845v6.204395zM234.531153 75.8917025h-1.081655v-5.560815h-4.98264v5.560815h-1.081654v-6.6497829h7.145949zM234.531153 87.7682594h-1.081655v-5.5608149h-4.98264v5.5608149h-1.081654v-6.6497829h7.145949zM234.531153 104.531342h-1.081655V93.0971786h-4.98264v11.4341634h-1.081654V92.0082107h7.145949zM246.019241 75.8917025h-1.081655v-5.560815h-4.98264v5.560815h-1.081654v-6.6497829h7.145949zM246.019241 87.7682594h-1.081655v-5.5608149h-4.98264v5.5608149h-1.081654v-6.6497829h7.145949zM246.019241 98.3846626h-1.081655v-5.5608149h-4.98264v5.5608149h-1.081654v-6.6497829h7.145949zM170.252927 26.4907794h5.194104v-5.2292242h-5.194104v5.2292242zm-1.081654 1.0889679h7.357412v-7.4071601h-7.357412v7.4071601zM134.631347 30.1028861h3.824189v-3.8500462h-3.824189v3.8500462zm-1.081114 1.088968h5.987498v-6.0279822h-5.987498v6.0279822zM202.945387 141.737349h3.824189v-3.850047h-3.824189v3.850047zm-1.081113 1.088968h5.987497v-6.027982h-5.987497v6.027982zM218.540679 141.737349h3.824188v-3.850047h-3.824188v3.850047zm-1.081655 1.088968h5.987498v-6.027982h-5.987498v6.027982zM234.242513 141.737349h3.824189v-3.850047h-3.824189v3.850047zm-1.081113 1.088968h5.987497v-6.027982H233.1614v6.027982zM170.252927 40.2912705h5.194104v-5.2292242h-5.194104v5.2292242zm-1.081654 1.0889679h7.357412v-7.4071601h-7.357412v7.4071601zM193.15912 40.2912705h5.194104v-5.2292242h-5.194104v5.2292242zm-1.081654 1.0889679h7.357412v-7.4071601h-7.357412v7.4071601zM114.82842 151.356747h18.388123V83.8407331H114.82842v67.5160139zm-1.081654 1.088968h20.551431V82.7517651h-20.551431v69.6939499z" mask="url(#h)"/><path fill="#F2EAC7" d="M119.695864 102.353189h8.653235v-8.7117442h-8.653235v8.7117442zm-1.081654 1.088968h10.816543V92.5524769H118.61421v10.8896801zM119.695864 121.954612h8.653235v-8.711744h-8.653235v8.711744zm-1.081654 1.088968h10.816543V112.1539H118.61421v10.88968zM119.695864 141.556036h8.653235v-8.711744h-8.653235v8.711744zm-1.081654 1.088968h10.816543v-10.88968H118.61421v10.88968zM134.298197 151.356747h28.123012v-38.113879h-28.123012v38.113879zm-1.081654 1.088968h30.28632V112.1539h-30.28632v40.291815z" mask="url(#h)"/><path fill="#F2EAC7" d="M144.033086 141.556036h8.653234v-8.711744h-8.653234v8.711744zm-1.081654 1.088968h10.816543v-10.88968h-10.816543v10.88968zM173.442509 137.714592h13.110732l-6.555366-20.190011-6.555366 20.190011zm14.602333 1.088968h-16.093934l8.046967-24.784366 8.046967 24.784366z" mask="url(#h)"/><path fill="#F2EAC7" d="M179.457264 147.896552h1.081654v-9.637367h-1.081654zM183.693942 73.2782883h-70.717476L97.1378017 56.7820569l.7771686-.7568327 15.5201167 16.1640961h70.258855zM197.346744 115.563459h46.740446v-1.088968h-46.740446zM253.141069 104.531342h-1.081654V62.1133174H222.63301v42.4180246h-1.081655V61.0243495h31.589714z" mask="url(#h)"/><path fill="#F2EAC7" d="M126.077354 62.3886085c-1.341792 0-2.433722 1.0993132-2.433722 2.450178 0 1.3508647 1.09193 2.4501779 2.433722 2.4501779 1.341792 0 2.433722-1.0993132 2.433722-2.4501779 0-1.3508648-1.09193-2.450178-2.433722-2.450178m0 5.9893239c-1.938324 0-3.515376-1.5877153-3.515376-3.5391459s1.577052-3.5391459 3.515376-3.5391459c1.938325 0 3.515377 1.5877153 3.515377 3.5391459s-1.577052 3.5391459-3.515377 3.5391459M143.492097 62.3886085c-1.341793 0-2.433723 1.0993132-2.433723 2.450178 0 1.3508647 1.09193 2.4501779 2.433723 2.4501779 1.341792 0 2.433722-1.0993132 2.433722-2.4501779 0-1.3508648-1.09193-2.450178-2.433722-2.450178m0 5.9893239c-1.938325 0-3.515377-1.5877153-3.515377-3.5391459s1.577052-3.5391459 3.515377-3.5391459c1.938324 0 3.515376 1.5877153 3.515376 3.5391459s-1.577052 3.5391459-3.515376 3.5391459M122.670414 56.0720498h24.337221v-1.0889679h-24.337221z" mask="url(#h)"/><path fill="#F2EAC7" d="M134.298197 65.1110285h1.081655V48.7765089h-1.081655z" mask="url(#h)"/><path fill="#F2EAC7" d="M129.97158 65.8727616h10.275716v-1.088968H129.97158z" mask="url(#h)"/><path fill="#F2EAC7" d="M147.5483 65.8729794h-.275822v-1.088968h.275822c2.087593 0 3.78579-1.7102242 3.78579-3.8113879v-1.088968c0-2.1011637-1.698197-3.8113879-3.78579-3.8113879h-1.081654v-1.088968c0-2.2247615-.899937-5.9893238-4.272535-5.9893238h-14.277836c-3.889088 0-4.705197 3.2565587-4.705197 5.9893238v1.088968h-1.081654c-2.087593 0-3.78579 1.7102242-3.78579 3.8113879v1.088968c0 2.1011637 1.698197 3.8113879 3.78579 3.8113879h.816649v1.088968h-.816649c-2.683584 0-4.867444-2.1980819-4.867444-4.9003559v-1.088968c0-2.702274 2.18386-4.9003559 4.867444-4.9003559 0-4.4985266 2.109226-7.0782918 5.786851-7.0782918h14.277836c3.678707 0 5.354189 3.6692776 5.354189 7.0782918 2.683584 0 4.867444 2.1980819 4.867444 4.9003559v1.088968c0 2.702274-2.18386 4.9003559-4.867444 4.9003559M193.961978 87.3748153c.130339 1.3334413.568409 4.4794698 1.883701 6.0546619 1.340169 1.6062278 4.122184 2.12621 5.337964 2.2808434-.069226-1.2512242-.401294-4.2039608-1.989163-6.1929608-1.235249-1.547968-4.002661-2.0107794-5.232502-2.1425445zm8.31035 9.5148577l-.561379-.0326691c-.189289-.0103452-4.661389-.2918434-6.693277-2.7267758-1.92264-2.3037117-2.175747-7.1191281-2.186023-7.3227651l-.028664-.5918541.58842.0212349c.191994.0070783 4.729533.1965587 6.646225 2.598822 2.299056 2.8797758 2.248218 7.3009858 2.244973 7.4877438l-.010275.5662634z" mask="url(#h)"/><path fill="#F2EAC7" d="M209.067388 87.3769388c-1.199014.1344875-3.85123.5994769-5.039427 2.1338327-1.54298 1.9944449-1.864231 4.9439146-1.930212 6.1962278 1.186034-.1584449 3.856638-.6822384 5.142184-2.2710427 1.275811-1.5768256 1.700902-4.7239431 1.827455-6.0590178zm-8.057784 9.5132242l-.009734-.5668078c-.003245-.186758-.052461-4.6030677 2.174666-7.4817545 1.86369-2.4071637 6.274676-2.5977331 6.461802-2.6048114l.587879-.0217793-.028123.5913096c-.009194.203637-.254729 5.015242-2.117338 7.3178647-1.975101 2.4398328-6.32281 2.72242-6.506691 2.7327652l-.562461.0332135zM76.3246638 102.729863c.1573807 1.194053.6776565 3.882715 2.2557901 5.176953 1.5683987 1.286616 4.6927571 1.713491 6.0183245 1.840356-.1335843-1.206576-.5949099-3.87727-2.1200425-5.074046-1.9810498-1.553413-4.9101696-1.876836-6.1540721-1.943263zm9.4282397 8.180872l-.5873383-.027225c-.2028102-.0098-4.9815588-.256996-7.268176-2.132199-2.4239873-1.989-2.7041358-6.365562-2.7149523-6.550687l-.0329905-.566808.5635419-.009256c.1844221.006534 4.5716119-.052815 7.4304242 2.18937 2.3915377 1.876292 2.5808272 6.317648 2.5878579 6.50495l.0216331.591855zM86.4284507 102.730407c.1579215 1.194598.6781972 3.882171 2.25579 5.176409 1.5662354 1.284438 4.6922164 1.712403 6.0188653 1.840356-.1335843-1.207121-.5954506-3.877815-2.1205832-5.074046-1.9756416-1.549601-4.9085472-1.875203-6.1540721-1.942719zm9.4287805 8.180328l-.5878791-.027225c-.2022694-.0098-4.9815589-.256996-7.2681761-2.132199-2.4239872-1.989-2.7041357-6.365562-2.7149522-6.550687l-.0329905-.566808.5635419-.009256c.1849629.006534 4.5716119-.052815 7.430965 2.18937 2.3909968 1.876837 2.5808271 6.317103 2.5878579 6.505495l.0216331.59131zM96.5866988 102.729863c.1573807 1.194053.6776564 3.882715 2.2557901 5.176953 1.5683991 1.286616 4.6927571 1.713491 6.0183241 1.840356-.133584-1.206576-.59491-3.87727-2.120042-5.074046-1.98105-1.553413-4.9101697-1.876836-6.1540722-1.943263zm9.4282392 8.180872l-.587338-.027225c-.20281-.0098-4.981559-.256996-7.2681758-2.132199-2.4239873-1.989-2.7041358-6.365562-2.7149523-6.550687l-.0329905-.566808.5635419-.009256c.1865854.006534 4.5716117-.052815 7.4304247 2.18937 2.391537 1.876292 2.580827 6.317648 2.587857 6.50495l.021633.591855zM141.692656 95.3947377c.157381 1.1940534.677657 3.8827153 2.25579 5.1769533 1.565695 1.283894 4.692217 1.711858 6.018325 1.839812-.133584-1.207121-.595451-3.8772706-2.120042-5.0735019-1.98105-1.5534128-4.91017-1.8768363-6.154073-1.9432634zm9.42824 8.1803273l-.587338-.027224c-.20281-.009801-4.981559-.256997-7.268176-2.131655-2.424528-1.9889999-2.704136-6.3655622-2.714953-6.5506867l-.03299-.5668078.563542-.0092563c.184422.0027225 4.571612-.0528149 7.430424 2.1893701 2.391538 1.8762919 2.580827 6.3165587 2.587858 6.5049507l.021633.591309zM86.3405122 38.6158388c-.7766278.8951317-2.4888865 3.1411281-2.4888865 5.5330463 0 1.9917224 1.6976564 4.3526049 2.4888865 5.3451992.8031283-.9893274 2.5321527-3.3512989 2.5321527-5.3451992 0-2.399541-1.7436267-4.6422705-2.5321527-5.5330463zm-.0081124 12.5269431l-.3969671-.4415766c-.1287169-.1431993-3.1654613-3.552758-3.1654613-6.5523202 0-3.5407794 3.0583775-6.5915232 3.188176-6.7200214l.375334-.3686157.3780382.3653488c.1325027.1284982 3.2427996 3.1797865 3.2427996 6.7232883 0 3.0109964-3.0892047 6.4129323-3.2200848 6.5566761l-.4018346.4372207zM185.644922 52.2789566h21.131198V29.1852128l-21.131198-10.5820463v33.6757901zm22.212852 1.088968h-23.294507V16.8455722l23.294507 11.6655694v24.856783zM226.84946 45.8270391l.262842.3288684c.844772 1.0573879 2.099491 1.663943 3.442906 1.663943 1.498632 0 2.882609-.7573772 3.703043-2.0265694l.354242-.5482953.471601.4508327c.485663.4639004 1.120053.7198078 1.786352.7198078 1.432111 0 2.597593-1.1728185 2.597593-2.6146121 0-1.2278114-.865323-2.3031672-2.056765-2.5574412l-.616543-.1317652.22282-.5934875c.083288-.2221495.125472-.44321.125472-.6571922 0-1.0328861-.835037-1.8735694-1.860986-1.8735694-.39264 0-.772842.1279538-1.099501.3707936l-.585175.4344982-.245536-.6887722c-.539745-1.5163879-1.975101-2.5351174-3.571622-2.5351174-2.094083 0-3.79823 1.715669-3.79823 3.8244555 0 .1649786.014062.3272348.034613.4873131l.081665.6495694-.71281-.0413808c-.03299-.0027224-.065981-.0049003-.099512-.0049003-1.581379 0-2.868547 1.2953274-2.868547 2.8879431 0 1.5926156 1.287168 2.887943 2.868547 2.887943.407784 0 .805292-.0871174 1.181707-.2591744l.381824-.1736904zm3.705748 3.0817794c-1.538113 0-2.983203-.6386797-4.023213-1.7646726-.402376.136121-.819894.204726-1.246066.204726-2.177911 0-3.950202-1.7837296-3.950202-3.976911 0-2.0619609 1.566777-3.7623844 3.564592-3.9583986v-.0201459c0-2.7093523 2.189268-4.9134235 4.879884-4.9134235 1.836649 0 3.507264 1.0486761 4.33527 2.6657936.367222-.1628007.762025-.2471958 1.166564-.2471958 1.622482 0 2.942641 1.3290855 2.942641 2.9625374 0 .1595338-.014062.3196121-.041644.4802349 1.399661.5401281 2.36666 1.9149502 2.36666 3.4596512 0 2.0423595-1.650605 3.7035801-3.679248 3.7035801-.739851 0-1.45158-.2221495-2.055684-.6337794-1.04001 1.2855267-2.592725 2.0380036-4.259554 2.0380036zM102.203027 38.725879l.34667.4949359c.841527 1.2022207 2.267147 1.9203951 3.813913 1.9203951 1.387762 0 2.681421-.5760641 3.549989-1.5795481l.256352-.2967438.360191.1519111c.391559.1649786.805292.2488292 1.2293.2488292 1.627349 0 2.950753-1.2120214 2.950753-2.7011851 0-1.4897082-1.323404-2.701185-2.950753-2.701185-.034613 0-.069226.0027224-.103298.0043558l-.720382.0353915.089237-.6501139c.021092-.1480996.035154-.2978327.035154-.4508327 0-1.9770214-1.750658-3.5859716-3.902609-3.5859716-1.646278 0-3.123277.9604698-3.675461 2.3908292l-.246617.6392242-.562461-.3865836c-.339098-.2335836-.736606-.356637-1.149798-.356637-1.057858 0-1.9188549.7813345-1.9188549 1.7418042 0 .1960143.040562.391484.1238494.5978435l.2487805.6130889-.6457476.1268648c-1.2211877.2401174-2.1076034 1.2441459-2.1076034 2.3875623 0 1.3470534 1.1990138 2.4430996 2.6727677 2.4430996.6938813 0 1.3520683-.2439288 1.8544963-.6882277l.452132-.3991068zm4.160583 3.5042989c-1.703065 0-3.292015-.7170854-4.35474-1.9421743-.619788.3991067-1.352068.6141779-2.1124713.6141779-2.0702863 0-3.754422-1.5844484-3.754422-3.5320676 0-1.4750071.9875503-2.7855801 2.4169565-3.3001175-.0243372-.1426548-.0362354-.2842206-.0362354-.425242 0-1.5610355 1.3461187-2.8307722 3.0005092-2.8307722.419682 0 .829088.0833061 1.209289.2439288.846395-1.5349003 2.552704-2.5307615 4.425048-2.5307615 2.744157 0 4.977773 2.0908185 4.984263 4.6640498 2.044867.1813132 3.650042 1.8038754 3.650042 3.773274 0 2.0897295-1.808526 3.790153-4.032407 3.790153-.440233 0-.871813-.0669715-1.287709-.2003701-1.062185 1.0693666-2.538643 1.6759217-4.108123 1.6759217z" mask="url(#h)"/><path fill="#F2EAC7" d="M201.000032 105.072886h1.081654V85.2934164h-1.081654zM179.553477 106.336579c-13.37141 0-22.354549-9.8845623-22.354549-24.5970641h1.081654c0 14.0607545 8.548855 23.5080961 21.272895 23.5080961v1.088968z" mask="url(#h)"/><path fill="#F2EAC7" d="M179.703989 97.0079893c-8.16649 0-13.653181-6.0290712-13.653181-15.0032562h1.081654c0 8.3224377 5.051867 13.9142883 12.571527 13.9142883v1.0889679zM68.7985133 29.1081139H67.716859c0-7.769242 5.6575927-12.9886655 14.0788123-12.9886655h22.0387067v1.088968H81.7956713c-7.7738495 0-12.997158 4.7822028-12.997158 11.8996975" mask="url(#h)"/><path fill="#F2EAC7" d="M75.0864401 36.1231367h-1.0816543c0-7.8792278 3.860965-11.8746513 11.4758112-11.8746513h10.8765748v1.088968H85.480597c-6.9939766 0-10.3941569 3.5282562-10.3941569 10.7856833M197.527543 150.631168h-1.081654v-19.856787l8.717052-9.306864 7.909597 9.165843-.816649.714908-7.125939-8.257645-7.602407 8.116623z" mask="url(#h)"/><path fill="#F2EAC7" d="M213.268804 150.631168h-1.081654v-19.856787l8.717051-9.306864 7.909598 9.165843-.816649.714908-7.125939-8.257645-7.602407 8.116623z" mask="url(#h)"/><path fill="#F2EAC7" d="M244.620662 150.631168h-1.081655v-19.436445l-6.993435-8.1041-7.602408 8.116623v19.060751h-1.081654v-19.493616l8.717052-9.306864 8.0421 9.319932zM233.006885 21.6267406h-.048674c-2.329342-.0147011-4.486161-1.1025801-5.769003-2.9113559-1.074083-1.5136655-2.668441-2.3821174-4.374751-2.3821174-1.705769 0-3.300668.8684519-4.375292 2.3821174-1.332057 1.8784697-3.367189 2.9320463-5.445588 2.8313167-1.901008-.0969181-3.555398-1.1455943-4.538081-2.8775978l.938876-.5401282c.796639 1.4031353 2.128155 2.2525303 3.653828 2.329847 1.710637.0871175 3.394232-.8014804 4.51104-2.3761281 1.280138-1.803331 3.195206-2.838395 5.255217-2.838395s3.97508 1.035064 5.255217 2.838395c1.081655 1.5245552 2.911273 2.4425552 4.895027 2.4550783 2.006469.0027224 3.856638-.8994875 5.024284-2.5024484 1.418049-1.9465302 3.239014-3.0191637 5.127582-3.0191637 1.888569 0 3.709534 1.0726335 5.127583 3.0191637l-.872355.644669c-1.209289-1.6601316-2.72036-2.5748647-4.255228-2.5748647-1.535408 0-3.045938.9147331-4.255228 2.5748647-1.365588 1.8741139-3.497529 2.9467474-5.854454 2.9467474M233.006885 14.7297619h-.048674c-2.329342-.014701-4.486161-1.10258-5.769003-2.9113559-1.074083-1.5136654-2.668441-2.3821174-4.374751-2.3821174-1.705769 0-3.300668.868452-4.375292 2.3821174-1.332057 1.8790143-3.367189 2.9380356-5.445588 2.8313168-1.901008-.0969182-3.555398-1.1455943-4.538081-2.8775979l.938876-.5401281c.796639 1.4031352 2.128155 2.2525302 3.653828 2.329847 1.710637.0860284 3.394232-.8014805 4.51104-2.3761281 1.280138-1.803331 3.195206-2.838395 5.255217-2.838395s3.97508 1.035064 5.255217 2.838395c1.081655 1.5245551 2.911273 2.4425551 4.895027 2.4550783 2.006469.0070782 3.856638-.8994876 5.024284-2.5024484 1.418049-1.9465303 3.239014-3.0186193 5.127582-3.0186193 1.888569 0 3.709534 1.072089 5.127583 3.0186193l-.871814.644669c-1.20983-1.6601317-2.720901-2.5743203-4.255769-2.5743203-1.535408 0-3.045938.9141886-4.255228 2.5743203-1.365588 1.8741139-3.497529 2.9467473-5.854454 2.9467473M69.1463192 143.658669l5.0475398 5.873349v-16.687345c0-4.903623 3.9631813-8.893057 8.8338706-8.893057 1.2806787 0 2.4986214.275509 3.598123.771534-2.0410817-2.263965-5.2227678-5.218335-7.9247402-5.218335-2.2417285 0-9.5547932.719808-9.5547932 9.982025v14.171829zm6.1291941 8.796684l-7.2108484-8.391588V129.48684c0-8.162904 5.494263-11.070993 10.6364475-11.070993 4.9058431 0 10.6510498 7.874872 10.8933404 8.210274l-.1519724.111075c1.498632 1.594249 2.418579 3.744416 2.418579 6.107477v17.967971h11.7181016v1.088968H90.7794051v-19.056939c0-4.303601-3.4775186-7.804089-7.7516755-7.804089-4.2746978 0-7.7522163 3.500488-7.7522163 7.804089v19.61068zM144.899599 37.0153281h-1.081654V21.989748l-7.130806-7.4305729-7.436914 7.4371068v15.0190462h-1.081654V21.5432712l8.534793-8.5347865 8.196235 8.5413203z" mask="url(#h)"/><path fill="#F2EAC7" d="M122.906052 37.3784989h-1.081654V16.0951644l8.551018-8.4002989 6.668939 5.6729786-.698208.8319716-5.918812-5.0348435-7.521283 7.3897367z" mask="url(#h)"/><path fill="#F2EAC7" d="M128.357914 22.1834754l-6.04807-5.2085338.703075-.8276156 6.04807 5.2085338zM114.647784 37.5595943h46.511134v-1.088968h-46.511134z" mask="url(#h)"/></g></g></svg>
