<?xml version="1.0" encoding="UTF-8"?>
<svg width="81px" height="94px" viewBox="0 0 81 94" version="1.1" xmlns="http://www.w3.org/2000/svg" xmlns:xlink="http://www.w3.org/1999/xlink">
    <!-- Generator: Sketch 58 (84663) - https://sketch.com -->
    <title>Group 33 Copy 2</title>
    <desc>Created with Sketch.</desc>
    <g id="Page-1" stroke="none" stroke-width="1" fill="none" fill-rule="evenodd">
        <g id="Desktop-Copy-12" transform="translate(-884.000000, -500.000000)" stroke="#333333">
            <g id="Group-33-Copy-2" transform="translate(886.000000, 502.000000)">
                <path d="M44.3465244,2.54147274 L74.6701511,34.5216714 C76.0937956,36.0041972 76.8768,37.9808982 76.8768,40.0281957 L76.8768,82.3860748 C76.8768,86.8336521 73.2465067,90.4340718 68.7620267,90.4340718 L38.4384,90.4340718 L8.11477333,90.4340718 C3.63029333,90.4340718 4.97379915e-14,86.8336521 4.97379915e-14,82.3860748 L4.97379915e-14,40.0281957 C4.97379915e-14,37.9808982 0.783004444,36.0041972 2.20664889,34.5216714 L32.5302756,2.54147274 C35.7334756,-0.847157581 41.1433244,-0.847157581 44.3465244,2.54147274 Z" id="Path" stroke-width="2.688"></path>
                <path d="M7.11822222,27.2475684 L7.11822222,5.36266419 C7.11822222,3.24477023 9.32487111,1.4798586 12.0297956,1.4798586 L17.1549156,1.4798586 C19.85984,1.4798586 22.0664889,3.24477023 22.0664889,5.36266419 L22.0664889,12.2105213" id="Path" stroke-width="2.688" stroke-linecap="square" stroke-linejoin="round"></path>
                <g id="avatar-copy-2" transform="translate(18.900000, 31.500000)" stroke-linecap="round" stroke-linejoin="round" stroke-width="2.1">
                    <g id="Group-3" transform="translate(0.168538, 0.122573)">
                        <path d="M12.0621064,37.7156101 C11.7892028,39.1426487 11.3040408,40.5696872 10.5762978,41.8726355 C10.2730715,42.4310419 10.4853299,43.082516 11.0311372,43.3617192 C12.092429,43.889103 13.8814639,44.69569 16.0343703,45.2230738 C18.3692124,45.8125028 21.1588939,46.1227285 23.9485754,45.502277 C24.5247053,45.3781867 24.8885768,44.8197803 24.7976089,44.2303513 C24.5550279,42.9894483 24.4034148,40.662755 25.434384,37.6845876 C25.5556745,37.3433392 25.8589008,37.064136 26.2227723,37.0020909 C32.3782651,35.9473232 37.078272,30.4563271 37.078272,23.8485182 C37.078272,20.1258089 35.5924634,16.7753706 33.196976,14.324587 C29.8918099,11.0051712 24.46406,11.5325551 21.7653464,15.4103772 C20.1885699,17.6750253 17.6111468,20.0017186 13.547915,20.6221702 C12.577591,20.777283 11.607267,20.6221702 10.6672657,20.342967 C10.151781,20.1878541 9.51500592,20.2498992 8.84790817,20.9323959 C7.27113167,22.5765925 8.36274617,27.3540694 10.2124263,27.7883855 C10.3640394,27.819408 10.5156525,27.8504306 10.636943,27.8504306 C11.1524277,27.8504306 11.6982349,28.2227015 11.9104933,28.7190628 C11.9408159,28.7811079 12.5472684,30.1150788 12.2137195,31.9143882" id="Path"></path>
                        <path d="M29.6626176,29.6626176 C29.6626176,29.6626176 27.0677746,32.2078555 21.5728128,30.3042742" id="Path"></path>
                        <path d="M11.8867009,37.7524224 C4.89452391,34.8054379 0,27.7947169 0,19.6052021 C0,8.7789117 8.6034178,0 19.2132864,0 C29.823155,0 38.4265728,8.7789117 38.4265728,19.6052021 C38.4265728,22.7383119 37.4537482,25.7783591 36.1769158,28.4151347" id="Path"></path>
                    </g>
                </g>
            </g>
        </g>
    </g>
</svg>