<?xml version="1.0" encoding="utf-8"?>

<!DOCTYPE svg PUBLIC "-//W3C//DTD SVG 1.1//EN" "http://www.w3.org/Graphics/SVG/1.1/DTD/svg11.dtd">
<svg version="1.1" id="Layer_1" xmlns="http://www.w3.org/2000/svg" xmlns:xlink="http://www.w3.org/1999/xlink" x="0px" y="0px"
	 viewBox="0 0 2169.483 1661.281" enable-background="new 0 0 2169.483 1661.281" xml:space="preserve">
<g>
	<path d="M475.685,554.202c144.531,0,261.875-117.228,261.875-261.798c0-144.533-117.344-261.763-261.875-261.763
		c-144.57,0-261.84,117.231-261.84,261.763C213.845,436.974,331.115,554.202,475.685,554.202"/>
	<path d="M676.928,596.699c128.865,0,234.345,59.548,234.345,133.087v322.108c0,25.135-34.527,45.479-78.598,45.479
		c-44.031,0-79.774-20.345-79.774-45.479V761.461h-41.067v808.216c0,33.652-48.329,60.955-107.344,60.955
		c-58.977,0-106.849-27.302-106.849-60.955v-469.3h-43.843v469.3c0,33.652-47.835,60.955-106.849,60.955
		c-59.091,0-106.887-27.302-106.887-60.955c0-49.849-0.952-808.216-0.952-808.216h-40.647v290.433
		c0,25.135-35.63,45.479-79.74,45.479c-44.071,0-78.709-20.345-78.709-45.479V729.786c0-73.538,105.631-133.087,234.459-133.087
		H676.928z"/>
</g>
<g>
	<path d="M1566.417,554.202c144.531,0,261.875-117.228,261.875-261.798c0-144.533-117.344-261.763-261.875-261.763
		c-144.57,0-261.84,117.231-261.84,261.763C1304.577,436.974,1421.847,554.202,1566.417,554.202"/>
	<path d="M1579.729,598.649h-149.323c0,0-180.049-3.574-241.762,110.69l-154.457,285.984c-14.754,26.731,13.006,47.19,56.923,53.844
		c43.92,6.768,88.865-5.057,100.386-26.465l150.198-278.759l40.951-0.039L1122.1,1226.628h245.26l0.077,0.114v354.277
		c0,26.998,43.576,49.545,96.619,49.622c46.772,0.077,96.127-25.172,96.127-52.094v0.077v-351.996h39.28v351.996v-0.077
		c0,26.922,49.395,52.17,96.164,52.094c53.045-0.077,96.545-22.624,96.545-49.622v-354.277l0.151-0.114h245.223l-260.545-482.724
		l40.951,0.039l150.161,278.759c11.558,21.407,56.503,33.232,100.423,26.465c43.917-6.654,71.677-27.112,56.96-53.844
		l-154.533-285.984c-61.674-114.264-241.723-110.69-241.723-110.69H1579.729z"/>
</g>
</svg>
