<?xml version="1.0" encoding="UTF-8"?>
<svg width="79px" height="95px" viewBox="0 0 79 95" version="1.1" xmlns="http://www.w3.org/2000/svg" xmlns:xlink="http://www.w3.org/1999/xlink">
    <!-- Generator: Sketch 58 (84663) - https://sketch.com -->
    <title>avatar</title>
    <desc>Created with Sketch.</desc>
    <g id="Page-1" stroke="none" stroke-width="1" fill="none" fill-rule="evenodd" stroke-linecap="round" stroke-linejoin="round">
        <g id="Desktop-Copy-12" transform="translate(-650.000000, -500.000000)" stroke="#979797" stroke-width="2.6752">
            <g id="avatar" transform="translate(651.000000, 502.000000)">
                <g id="Group-3" transform="translate(0.334400, 0.243200)">
                    <path d="M23.9327508,74.8325598 C23.3912754,77.6639855 22.4286524,80.4954112 20.9847178,83.0806259 C20.3830785,84.1885751 20.804226,85.4811825 21.8871769,86.0351571 C23.9929148,87.0815536 27.5425871,88.6819246 31.8142268,89.728321 C36.44685,90.897823 41.9819323,91.5133503 47.5170147,90.2822956 C48.6601295,90.0360847 49.3820968,88.9281355 49.2016049,87.7586336 C48.7202934,85.2965243 48.4194737,80.6800694 50.4650477,74.7710071 C50.7057034,74.093927 51.3073428,73.5399524 52.0293101,73.416847 C64.2425895,71.3240541 73.568,60.4292204 73.568,47.3184884 C73.568,39.9321606 70.619967,33.2844655 65.8670159,28.4217996 C59.3091466,21.8356572 48.5398016,22.8820537 43.1852111,30.5761452 C40.0566863,35.0694947 34.9427515,39.6859496 26.8807838,40.9170043 C24.9555378,41.2247679 23.0302917,40.9170043 21.1652097,40.3630297 C20.1424227,40.055266 18.87898,40.1783715 17.5553733,41.5325316 C14.4268486,44.7948264 16.5927503,54.2739472 20.2627506,55.1356854 C20.5635703,55.1972382 20.86439,55.2587909 21.1050457,55.2587909 C22.1278327,55.2587909 23.2107836,55.9974237 23.6319311,56.9822674 C23.6920951,57.1053729 24.8953738,59.7521404 24.2335705,63.3221989" id="Path"></path>
                    <path d="M58.8544,58.8544 C58.8544,58.8544 53.7059019,63.9044752 42.8032,60.1275282" id="Path"></path>
                    <path d="M23.5847241,74.9056 C9.71135696,69.0584085 0,55.1482478 0,38.8992105 C0,17.4184756 17.0702734,0 38.1216,0 C59.1729266,0 76.2432,17.4184756 76.2432,38.8992105 C76.2432,45.1156983 74.3129924,51.1475379 71.7795949,56.3792355" id="Path"></path>
                </g>
            </g>
        </g>
    </g>
</svg>